<?xml version="1.0" encoding="UTF-8" standalone="no"?>
<!-- Created with Inkscape (http://www.inkscape.org/) -->

<svg
   width="512"
   height="512"
   viewBox="0 0 135.46666 135.46667"
   version="1.1"
   id="svg5"
   inkscape:version="1.1.2 (0a00cf5339, 2022-02-04)"
   sodipodi:docname="gab-512.svg"
   xmlns:inkscape="http://www.inkscape.org/namespaces/inkscape"
   xmlns:sodipodi="http://sodipodi.sourceforge.net/DTD/sodipodi-0.dtd"
   xmlns="http://www.w3.org/2000/svg"
   xmlns:svg="http://www.w3.org/2000/svg">
  <sodipodi:namedview
     id="namedview7"
     pagecolor="#505050"
     bordercolor="#eeeeee"
     borderopacity="1"
     inkscape:pageshadow="0"
     inkscape:pageopacity="0"
     inkscape:pagecheckerboard="0"
     inkscape:document-units="px"
     showgrid="false"
     units="px"
     inkscape:snap-object-midpoints="true"
     inkscape:zoom="0.4894542"
     inkscape:cx="20.430921"
     inkscape:cy="58.228125"
     inkscape:window-width="1920"
     inkscape:window-height="1050"
     inkscape:window-x="0"
     inkscape:window-y="0"
     inkscape:window-maximized="1"
     inkscape:current-layer="layer1" />
  <defs
     id="defs2" />
  <g
     inkscape:label="Layer 1"
     inkscape:groupmode="layer"
     id="layer1">
    <path
       id="rect3534"
       style="fill:#e03546;fill-opacity:1;stroke:none;stroke-width:81.8956;stroke-linecap:butt;stroke-linejoin:round;stroke-miterlimit:0;stroke-dasharray:none;stroke-opacity:1;paint-order:stroke fill markers"
       d="M 128 0 A 128 128 0 0 0 0 128 L 0 384 A 128 128 0 0 0 128 512 L 384 512 A 128 128 0 0 0 512 384 L 512 128 A 128 128 0 0 0 384 0 L 128 0 z M 137.25 18.5 L 374.75 18.5 A 118.74999 118.75 0 0 1 493.5 137.25 L 493.5 374.75 A 118.74999 118.75 0 0 1 374.75 493.5 L 137.25 493.5 A 118.74999 118.75 0 0 1 18.5 374.75 L 18.5 137.25 A 118.74999 118.75 0 0 1 137.25 18.5 z "
       transform="scale(0.26458333)" />
    <path
       d="m 60.318453,21.564413 c -3.91257,0.52239 -8.027698,1.97227 -11.257969,3.97654 -2.45202,1.52451 -5.724933,4.49892 -7.537295,6.83367 -3.422167,4.43496 -5.714272,9.91468 -6.481861,15.45838 -0.234541,1.71642 -0.319829,5.2985 -0.170575,6.87632 0.479743,4.94668 1.780379,9.36032 3.869926,13.11297 1.620466,2.92111 3.049034,4.79743 5.277173,6.99359 2.590612,2.53731 4.722805,4.09381 7.494652,5.46907 7.60126,3.76332 16.481836,3.88059 23.550051,0.33049 2.036241,-1.02345 3.496793,-2.07889 5.437088,-3.94455 l 1.00213,-0.95949 -0.07463,2.30277 c -0.12793,4.2857 -0.511725,6.48186 -1.577821,9.04049 -1.289975,3.10233 -3.14498,5.36246 -5.788898,7.06821 -1.535177,0.99147 -2.643917,1.44989 -4.808091,1.9936 -1.88699,0.45842 -2.526646,0.54371 -4.328349,0.55437 -2.590612,0.0107 -4.722801,-0.34115 -7.334737,-1.23667 -2.110869,-0.72495 -5.330478,-2.31343 -6.844332,-3.37953 l -0.287846,-0.19189 -0.586353,1.08742 c -0.319828,0.60767 -2.068226,3.88058 -3.880588,7.281427 l -3.294235,6.18335 0.703623,0.52239 c 4.957345,3.66737 11.130037,6.01278 18.294201,6.94028 2.046902,0.26652 7.985054,0.18124 10.18121,-0.14925 5.319816,-0.78891 9.80808,-2.27079 13.539414,-4.48827 3.603403,-2.12153 6.950943,-5.35179 9.189742,-8.84859 3.187627,-4.989317 4.989327,-10.554337 5.810217,-18.017007 0.15992,-1.51386 0.18124,-4.14711 0.21322,-30.3624 l 0.0426,-28.69929 h -9.712127 -9.701467 v 2.79317 2.78251 L 80.0625,27.726443 c -1.32196,-1.28997 -2.025583,-1.84435 -3.400845,-2.73987 -2.547968,-1.64178 -5.522375,-2.71854 -9.157763,-3.33687 -1.449888,-0.24521 -5.650306,-0.29851 -7.185483,-0.0853 z m 9.477591,17.42 c 0.916842,0.17058 2.857134,0.82089 3.731333,1.25799 1.88699,0.93816 3.891249,2.6226 5.063953,4.25372 2.217479,3.09168 3.01705,6.99359 2.174836,10.56501 -1.279314,5.43709 -5.671629,9.62684 -11.023428,10.52236 -1.289975,0.22388 -3.635385,0.17058 -4.829414,-0.10661 -1.918972,-0.42644 -4.12579,-1.52451 -5.788898,-2.86779 -3.123661,-2.51599 -4.936022,-6.25798 -4.957346,-10.24518 -0.01067,-2.95309 1.10874,-5.99146 3.198289,-8.61405 1.844344,-2.32409 5.298493,-4.32835 8.304885,-4.81876 1.02345,-0.17057 3.049032,-0.13859 4.12579,0.0533 z"
       id="path4216"
       style="fill:#e03546;stroke:none;stroke-width:0.010661;fill-opacity:1" />
  </g>
</svg>
