<?xml version="1.0" encoding="UTF-8" standalone="no"?>
<!-- Created with Inkscape (http://www.inkscape.org/) -->

<svg
   width="512"
   height="512"
   viewBox="0 0 135.46666 135.46667"
   version="1.1"
   id="svg5"
   inkscape:version="1.1.2 (0a00cf5339, 2022-02-04)"
   sodipodi:docname="mastodon-512.svg"
   xmlns:inkscape="http://www.inkscape.org/namespaces/inkscape"
   xmlns:sodipodi="http://sodipodi.sourceforge.net/DTD/sodipodi-0.dtd"
   xmlns="http://www.w3.org/2000/svg"
   xmlns:svg="http://www.w3.org/2000/svg">
  <sodipodi:namedview
     id="namedview7"
     pagecolor="#505050"
     bordercolor="#eeeeee"
     borderopacity="1"
     inkscape:pageshadow="0"
     inkscape:pageopacity="0"
     inkscape:pagecheckerboard="0"
     inkscape:document-units="px"
     showgrid="false"
     units="px"
     inkscape:snap-object-midpoints="true"
     inkscape:zoom="0.4894542"
     inkscape:cx="20.430921"
     inkscape:cy="58.228125"
     inkscape:window-width="1920"
     inkscape:window-height="1050"
     inkscape:window-x="0"
     inkscape:window-y="0"
     inkscape:window-maximized="1"
     inkscape:current-layer="layer1" />
  <defs
     id="defs2" />
  <g
     inkscape:label="Layer 1"
     inkscape:groupmode="layer"
     id="layer1">
    <path
       style="fill:#e03546;fill-opacity:1;stroke:none;stroke-width:8.7147;stroke-linecap:butt;stroke-linejoin:round;stroke-miterlimit:0;stroke-dasharray:none;stroke-opacity:1;paint-order:stroke fill markers"
       d="M 59.191837,113.91021 C 54.172993,113.52582 47.481738,112.16904 43.579783,110.74456 37.768128,108.62292 33.076406,104.1751 29.946862,97.820354 28.299828,94.475939 26.70364,89.213428 26.026429,84.894982 25.007984,78.400701 24.792818,75.755028 24.558206,66.842437 c -0.219577,-8.341432 0.03244,-19.751719 0.486289,-22.017832 0.4717,-2.355131 1.224067,-5.033711 1.787933,-6.365345 2.880334,-6.802272 7.334833,-11.491708 12.845977,-13.523505 0.971867,-0.3583 5.090633,-1.49286 6.156644,-1.695918 7.022767,-1.337725 12.727888,-1.808587 21.913488,-1.808587 12.644788,0 21.919898,1.206559 28.708187,3.734529 3.43882,1.28062 7.184836,4.56507 9.732236,8.53307 1.35275,2.107148 2.40486,4.398902 3.23936,7.05611 1.74684,5.562305 2.00794,13.735653 0.88004,27.54838 -0.20484,2.508491 -0.41812,4.101359 -1.06194,7.930596 -0.45327,2.696023 -1.56818,4.656852 -4.0346,7.095795 -4.51708,4.466771 -11.741729,7.719745 -19.202051,8.645928 -11.86761,1.47334 -15.982855,1.540628 -25.983132,0.424903 -3.048666,-0.340148 -6.770066,-0.921963 -8.765388,-1.370414 -0.7461,-0.167674 -1.567855,-0.350631 -1.826122,-0.406552 -0.452289,-0.09793 -0.469578,-0.04733 -0.469578,1.374177 0,5.566632 2.962567,9.850518 7.987722,11.550298 3.721777,1.25892 12.472599,1.86109 17.473654,1.20242 3.947067,-0.51986 4.574122,-0.63177 7.7941,-1.39119 0.785811,-0.18533 1.455544,-0.30685 1.488311,-0.27003 0.03278,0.0368 0.09422,1.69814 0.1365,3.69184 l 0.077,3.62491 -1.993567,0.77777 c -2.589711,1.01037 -4.831011,1.57871 -9.114333,2.3112 -2.803088,0.47935 -9.944032,0.69701 -13.623043,0.41522 z M 49.845138,64.598917 c 0.05522,-12.24953 0.08744,-13.275422 0.446233,-14.243765 0.527345,-1.423089 1.218322,-2.283115 2.385678,-2.969319 0.915589,-0.538223 1.144378,-0.578388 3.279944,-0.575861 1.959667,0.0023 2.4218,0.06978 3.157255,0.460848 1.218612,0.647993 2.392267,2.072134 2.990289,3.628476 0.507489,1.32071 0.513422,1.416734 0.588967,9.529365 l 0.07633,8.195214 4.941578,-0.05592 4.941577,-0.05591 L 72.772,60.4771 c 0.06589,-4.449187 0.214033,-8.360923 0.331911,-8.765394 0.416522,-1.429202 1.0691,-2.619977 1.868656,-3.409776 1.243677,-1.22851 1.950088,-1.462723 4.463166,-1.479788 1.914644,-0.013 2.319466,0.0487 3.205933,0.48861 1.251367,0.620996 2.090433,1.739225 2.639911,3.518197 0.3953,1.279855 0.415156,1.956784 0.415156,14.157183 v 12.813055 h 5.008799 5.008792 V 64.449791 c 0,-12.259493 -0.0323,-13.516125 -0.396525,-15.391613 C 94.60931,45.409369 93.644588,43.31548 91.665121,41.130283 88.994077,38.18163 85.831888,36.894011 81.2615,36.894011 c -4.078278,0 -6.425411,0.832686 -9.402444,3.335673 -0.607622,0.510874 -1.882122,2.284547 -2.851856,3.968822 -1.311211,2.277366 -1.223111,2.224762 -1.910511,1.140846 -0.330188,-0.520653 -0.600344,-0.989378 -0.600344,-1.041609 0,-0.290892 -1.932178,-3.036977 -2.618589,-3.721637 -2.678422,-2.671597 -5.360088,-3.682095 -9.771577,-3.682095 -2.087644,0 -2.912255,0.09365 -4.258744,0.483646 -4.2487,1.230598 -7.821566,4.803294 -9.116999,9.116548 -0.875911,2.916424 -0.940234,4.143026 -0.944034,18.000362 l -0.0033,13.304614 h 5.001411 5.001422 z"
       id="path2796" />
    <path
       id="rect3534"
       style="fill:#e03546;fill-opacity:1;stroke:none;stroke-width:81.8956;stroke-linecap:butt;stroke-linejoin:round;stroke-miterlimit:0;stroke-dasharray:none;stroke-opacity:1;paint-order:stroke fill markers"
       d="M 128 0 A 128 128 0 0 0 0 128 L 0 384 A 128 128 0 0 0 128 512 L 384 512 A 128 128 0 0 0 512 384 L 512 128 A 128 128 0 0 0 384 0 L 128 0 z M 137.25 18.5 L 374.75 18.5 A 118.74999 118.75 0 0 1 493.5 137.25 L 493.5 374.75 A 118.74999 118.75 0 0 1 374.75 493.5 L 137.25 493.5 A 118.74999 118.75 0 0 1 18.5 374.75 L 18.5 137.25 A 118.74999 118.75 0 0 1 137.25 18.5 z "
       transform="scale(0.26458333)" />
  </g>
</svg>
